<svg width="249" height="60" viewBox="0 0 249 60" fill="none" xmlns="http://www.w3.org/2000/svg">
<g clip-path="url(#clip0_2_92)">
<path d="M44.28 10.3201H9.72001C6.74245 10.3201 4.32001 12.7425 4.32001 15.7201V50.2801C4.32001 53.2576 6.74245 55.6801 9.72001 55.6801H44.28C47.2576 55.6801 49.68 53.2576 49.68 50.2801V15.7201C49.68 12.7425 47.2576 10.3201 44.28 10.3201ZM39.9665 30.1089C39.7213 30.1316 39.4729 30.1467 39.2213 30.1467C36.3885 30.1467 33.899 28.6898 32.4508 26.4877C32.4508 32.2646 32.4508 38.8375 32.4508 38.9476C32.4508 44.0333 28.3273 48.1568 23.2416 48.1568C18.1559 48.1568 14.0324 44.0333 14.0324 38.9476C14.0324 33.8619 18.1559 29.7385 23.2416 29.7385C23.4338 29.7385 23.6218 29.7557 23.8108 29.7676V34.3058C23.6218 34.2831 23.436 34.2485 23.2416 34.2485C20.6453 34.2485 18.5414 36.3524 18.5414 38.9487C18.5414 41.545 20.6453 43.6489 23.2416 43.6489C25.8379 43.6489 28.1308 41.6033 28.1308 39.007C28.1308 38.9044 28.1761 17.8455 28.1761 17.8455H32.5134C32.9216 21.7238 36.0526 24.7845 39.9665 25.0653V30.1089Z" fill="#F1D00A"/>
</g>
<g clip-path="url(#clip1_2_92)">
<path d="M92 3C77.0892 3 65 15.0892 65 30C65 43.5338 74.9698 54.7084 87.9601 56.6659V37.155H81.281V30.054H87.9601V25.3358C87.9601 17.5159 91.7739 14.0835 98.2674 14.0835C101.382 14.0835 103.029 14.3164 103.806 14.4176V20.6141H99.3778C96.6204 20.6141 95.6517 23.2297 95.6517 26.1829V30.0574H103.738L102.638 37.1584H95.6517V56.7266V56.73C108.831 54.9379 119 43.6688 119 30C119 15.0892 106.911 3 92 3Z" fill="#F1D00A"/>
</g>
<g clip-path="url(#clip2_2_92)">
<path d="M184 7.10447L183.075 6.35522C183.075 6.35522 179.332 8.87635 177.162 9.10247C175.073 6.8851 172.09 5.51147 168.782 5.51147C162.437 5.51147 157.29 10.6111 157.29 16.8987C157.29 17.7864 157.395 18.6537 157.587 19.4941C148.039 19.0216 142.136 13.4528 136.473 6.5611L134.053 7.6681C134.053 7.6681 132.511 12.1872 132.511 17.0034C132.511 29.9667 142.737 37.736 146.615 39.5922C142.248 43.4363 131.762 42.9132 131.762 42.9132L130 45.0125C130 45.0125 136.362 50.6251 147.617 50.6251C168.752 50.6251 180.318 35.0495 180.318 18.2116C180.318 17.7188 180.301 17.2261 180.274 16.7469C182.829 13.8545 184 10.8473 184 7.10447Z" fill="#F1D00A"/>
</g>
<path d="M211.875 6.375C204.42 6.375 198.375 12.4196 198.375 19.875V40.125C198.375 47.5804 204.42 53.625 211.875 53.625H232.125C239.58 53.625 245.625 47.5804 245.625 40.125V19.875C245.625 12.4196 239.58 6.375 232.125 6.375H211.875ZM211.875 9.75H232.125C237.717 9.75 242.25 14.2826 242.25 19.875V40.125C242.25 45.7174 237.717 50.25 232.125 50.25H211.875C206.283 50.25 201.75 45.7174 201.75 40.125V19.875C201.75 14.2826 206.283 9.75 211.875 9.75ZM211.875 13.125C208.146 13.125 205.125 16.1456 205.125 19.875V40.125C205.125 43.8544 208.146 46.875 211.875 46.875H232.125C235.854 46.875 238.875 43.8544 238.875 40.125V19.875C238.875 16.1456 235.854 13.125 232.125 13.125H211.875ZM233.812 16.5C234.744 16.5 235.5 17.256 235.5 18.1875C235.5 19.119 234.744 19.875 233.812 19.875C232.881 19.875 232.125 19.119 232.125 18.1875C232.125 17.256 232.881 16.5 233.812 16.5ZM222 19.875C227.592 19.875 232.125 24.4076 232.125 30C232.125 35.5924 227.592 40.125 222 40.125C216.408 40.125 211.875 35.5924 211.875 30C211.875 24.4076 216.408 19.875 222 19.875ZM222 23.25C218.272 23.25 215.25 26.2721 215.25 30C215.25 33.7279 218.272 36.75 222 36.75C225.728 36.75 228.75 33.7279 228.75 30C228.75 26.2721 225.728 23.25 222 23.25Z" fill="#F1D00A"/>
<defs>
<clipPath id="clip0_2_92">
<rect width="54" height="54" fill="white" transform="translate(0 6)"/>
</clipPath>
<clipPath id="clip1_2_92">
<rect width="54" height="54" fill="white" transform="translate(65 3)"/>
</clipPath>
<clipPath id="clip2_2_92">
<rect width="54" height="54" fill="white" transform="translate(130)"/>
</clipPath>
</defs>
</svg>
